<svg clip-rule="evenodd" fill-rule="evenodd" stroke-linejoin="round" stroke-miterlimit="1.414" viewBox="0 0 108 30" xmlns="http://www.w3.org/2000/svg"><g fill-rule="nonzero"><path d="M52.953 0H6.443C1.981 0 0 1.462 0 6.442v22.336C0 29.76.286 30 1.222 30h51.731zm1.269 0v30h51.797c.888 0 1.222-.24 1.222-1.222V1.222c0-.873-.228-1.222-1.222-1.222H54.222z" fill="#1c4280"/><path d="M61.396 14.949h-.921l-1.197 1.203v-1.196h-.726v3.249h.726v-1.193l.2-.189 1.084 1.382h.87l-1.457-1.809zm1.922 2.649c-.458 0-.951-.318-.951-1.015 0-.688.493-1.001.951-1.001.471 0 .945.309.945 1.001 0 .697-.49 1.015-.945 1.015m0-2.699c-.967 0-1.697.724-1.697 1.684 0 .948.746 1.691 1.697 1.691.965 0 1.692-.727 1.692-1.691 0-.96-.727-1.684-1.692-1.684m5.829 3.306v-3.25h-.829l-.919 1.764-.919-1.764h-.804v3.25h.715v-1.982l.737 1.429h.528l.775-1.499v2.052zm3.647 0v-3.25h-2.69v3.25h.733v-2.598h1.217v2.598zm1.686-1.472h.653c.246.006.532.119.532.423 0 .286-.275.416-.53.416h-.655zm1.899.423c0-.667-.453-1.05-1.244-1.05h-.655v-1.151h-.722v3.25h1.377c.602 0 1.244-.276 1.244-1.049m3.549-1.549c.529 0 .913.413.913.982 0 .594-.358.977-.913.977-.631 0-.914-.49-.914-.977 0-.569.385-.982.914-.982m-1.593 1.36c.173.779.798 1.282 1.593 1.282.304 0 .627-.087.887-.239.478-.313.754-.831.754-1.421 0-.937-.721-1.671-1.641-1.671-.765 0-1.389.502-1.591 1.278l-.012.049h-.411v-1.289H77.2v3.249h.714v-1.289h.411zm6.252-2.011h-2.659v.639h.956v2.61h.74v-2.61h.963zm1.165 1.278c.065-.477.486-.69.875-.69.384 0 .804.213.873.69l.01.074h-1.768zm-.766.336c-.004.471.17.917.476 1.226.298.3.707.459 1.183.459.566 0 1.052-.252 1.408-.729l.019-.026-.535-.341-.016.023c-.259.358-.604.403-.876.403a.898.898 0 01-.881-.609l-.03-.086h2.465l.004-.024c.1-.532-.027-1.057-.347-1.44a1.543 1.543 0 00-1.207-.546c-1.095.007-1.663.856-1.663 1.69m5.47 1.021c-.306 0-.514-.1-.634-.307l-.008-.016v-1.436l.016-.018a.713.713 0 01.544-.232c.281.004.933.109.933.995 0 .489-.266 1.014-.851 1.014m.107-2.661c-.287 0-.516.078-.701.236l-.075.064-.088-.274h-.612v4.463h.714v-1.41l.105.076c.194.142.412.166.6.17l.032.001c.364 0 .714-.148.989-.418.322-.318.507-.771.507-1.242 0-1.144-.762-1.666-1.471-1.666m4.987 3.275v-3.25h-.739v1.309h-1.217v-1.309h-.733v3.25h.733v-1.309h1.217v1.309zm1.582-1.385c.142-.138.387-.22.656-.22l.038.001c.228.006.434.069.581.177l.026.02v.517l-.02.019c-.166.159-.44.27-.667.27-.514 0-.743-.152-.743-.492 0-.111.043-.21.129-.292m-.717.837c.212.376.637.592 1.168.592.268 0 .574-.036.819-.298l.078-.084.1.338h.581v-1.968c0-.568-.257-1.001-.72-1.22-.581-.273-1.387-.157-1.915.279l-.021.017.301.456.025-.015c.28-.17.547-.248.865-.254h.016c.227 0 .405.061.527.182a.635.635 0 01.173.352l.02.119-.111-.048a1.574 1.574 0 00-.504-.099l-.092-.001c-.585 0-1.052.218-1.289.607-.195.32-.204.721-.021 1.045m4.715-1.324c-.247 0-.51-.096-.51-.366 0-.159.088-.35.509-.36h.656v.726zm1.376 1.872v-3.25h-1.376c-.763 0-1.219.379-1.219 1.012 0 .461.255.783.718.906l.09.024-.911 1.308h.829l.843-1.258h.305v1.258zM58.564 20.85v3.25h4.332v-3.25h-.765v2.611h-1.034V20.85h-.721v2.611h-1.047V20.85zm8.14-.006h-.921l-1.196 1.203V20.85h-.728v3.25h.728v-1.193l.198-.189L65.87 24.1h.869l-1.456-1.808zm1.923 2.648c-.459 0-.952-.317-.952-1.014 0-.688.493-1.002.952-1.002.469 0 .944.31.944 1.002 0 .697-.49 1.014-.944 1.014m0-2.698c-.968 0-1.698.724-1.698 1.684 0 .948.746 1.691 1.698 1.691.963 0 1.69-.728 1.69-1.691 0-.96-.727-1.684-1.69-1.684m5.068 3.306v-3.25h-2.413v1.679c.001.43.001.837-.576 1.15l-.031.016.377.496.024-.014c.861-.522.933-1.035.933-1.56v-1.135h.946V24.1zm1.586-1.386c.143-.137.389-.219.658-.219l.037.001c.229.006.434.069.582.177l.026.02v.516l-.02.02a1.05 1.05 0 01-.667.27c-.515 0-.744-.152-.744-.493 0-.109.044-.208.128-.292m-.716.838c.212.376.637.592 1.169.592.267 0 .573-.036.818-.298l.079-.084.099.338h.581v-1.968c0-.568-.256-1.001-.72-1.22-.581-.274-1.385-.157-1.914.279l-.021.017.301.455.024-.014c.282-.17.549-.248.866-.254l.022-.001c.222 0 .399.062.521.182a.637.637 0 01.172.353l.02.119-.11-.048a1.546 1.546 0 00-.505-.099l-.083-.001c-.59 0-1.061.219-1.298.607-.194.32-.203.721-.021 1.045m-63.218-8.12c.813.437 1.226.97 1.226 2.668v5.922h2.322v-6.463c0-2.751-1.533-4.545-4.101-4.797-.875-.08-1.609-.007-2.378.236-.27.085-.518.195-.74.328l-.149.09V6.685l-.095.051c-.199.103-.563.297-1.132.61-.915.517-1.224 1.138-1.224 2.463v14.213h2.451V15.79l.045-.029c1.146-.75 2.733-.887 3.775-.329m23.843 2.266l.008-.106c.138-1.775 1.745-2.584 3.18-2.584 1.439 0 3.06.809 3.218 2.583l.009.107zm7.367-3.032c-1-1.197-2.457-1.856-4.101-1.856h-.036c-3.69.022-5.62 2.909-5.62 5.749-.013 1.602.577 3.121 1.618 4.169 1.014 1.022 2.406 1.562 4.025 1.562 1.921 0 3.578-.858 4.79-2.481l.042-.057-1.77-1.126-.035.05c-.896 1.235-2.088 1.394-3.027 1.394-1.799 0-2.946-1.207-3.251-2.33l-.034-.124h8.572l.01-.053c.337-1.809-.094-3.594-1.183-4.897m-22.515-2.699c-.198.104-.563.297-1.132.61-.915.517-1.224 1.139-1.224 2.463v8.982h2.452V11.917zm10.584 12.011V9.853c0-1.325-.309-1.947-1.226-2.464a50.19 50.19 0 00-1.13-.609l-.096-.051v17.249zm-5.244 0V9.853c0-1.325-.309-1.947-1.226-2.464a52.606 52.606 0 00-1.13-.609l-.096-.051v17.249zm23.23 0V9.853c0-1.325-.309-1.947-1.226-2.464a53.384 53.384 0 00-1.129-.609l-.096-.051v17.249zM18.611 11.123c.295-.186.574-.322.798-.432.359-.177.668-.329.897-.578 1.126-1.22.84-3.093.827-3.172l-.031-.193-.091.173c-.005.01-.513.967-1.404 1.632-.1.075-.224.159-.37.256a16 16 0 00-1.006.722c-1.324 1.037-1.338 2.756-1.338 2.828v.185l.116-.145c.001-.002.455-.556 1.602-1.276m-.281-3.475c.607-.381 1.038-.677 1.318-.979.877-.949.643-2.205.632-2.258l-.036-.184-.086.165a4.177 4.177 0 01-1.077 1.251 5.738 5.738 0 01-.269.187c-.212.143-.48.324-.791.567-1.026.803-1.037 2.134-1.037 2.191v.185l.116-.145c.002-.002.341-.421 1.23-.98" fill="#fff"/></g></svg>